<?xml version="1.0" encoding="utf-8"?>
<!-- Generator: Adobe Illustrator 21.0.0, SVG Export Plug-In . SVG Version: 6.00 Build 0)  -->
<svg version="1.1" id="Warstwa_1" xmlns="http://www.w3.org/2000/svg" xmlns:xlink="http://www.w3.org/1999/xlink" x="0px" y="0px"
	 viewBox="0 0 850.4 850.4" style="enable-background:new 0 0 850.4 850.4;" xml:space="preserve">
<style type="text/css">
	.st0{fill:none;stroke:#020203;stroke-width:3.8817;stroke-linecap:round;stroke-linejoin:round;}
	.st1{fill:#3D3D3D;}
	.st2{fill:none;}
	.st3{fill:#FFFFFF;}
	.st4{font-family:'BrushScriptStd';}
	.st5{font-size:19px;}
	.st6{font-family:'Helvetica-Bold';}
	.st7{font-size:13px;}
</style>
<path id="path1068-1_2_" inkscape:connector-curvature="0" sodipodi:nodetypes="cccccccccc" class="st0" d="M634.6,347.6V243.9
	l-5.1,0.4c1-7.1-2.1-9.1-6.3-9.9c-13.4-1.4-24.7-11.3-36-21c1.7-6.5-2.2-7.3-6.7-7.5c-4.3-1.3-8.3-5.3-12.3-9.1l-0.4-4.8h-2.4
	c-0.1-2.1,1.9-4.6-1.2-6.1"/>
<path id="path1068-3-5_4_" inkscape:connector-curvature="0" sodipodi:nodetypes="cccccccccc" class="st0" d="M493.6,243.4l5.1,0.4
	c-1-7,2.1-9,6.3-9.8c13.4-1.4,24.7-11.2,36-20.8c-1.7-6.4,2.2-7.3,6.7-7.5c4.3-1.3,8.3-5.2,12.3-9l0.4-4.7h2.4
	c0.1-2.1-1.9-4.5,1.2-6"/>
<path id="path1094-69_2_" inkscape:connector-curvature="0" sodipodi:nodetypes="csc" class="st0" d="M464.1,244
	c1.8,5.7,7.2,7.4,14.1,7.4c6.4,0,11.9-0.6,15.3-7.6"/>
<path id="path1094-9-7_2_" inkscape:connector-curvature="0" sodipodi:nodetypes="csc" class="st0" d="M434.7,244.2
	c1.8,5.7,7.2,7.4,14.1,7.4c6.4,0,11.9-0.6,15.3-7.6"/>
<path id="path1094-4-2_2_" inkscape:connector-curvature="0" sodipodi:nodetypes="csc" class="st0" d="M405.3,244.3
	c1.8,5.7,7.2,7.4,14.1,7.4c6.4,0,11.9-0.6,15.3-7.6"/>
<path id="path1094-90-5_2_" inkscape:connector-curvature="0" sodipodi:nodetypes="csc" class="st0" d="M375.9,244.4
	c1.8,5.7,7.2,7.4,14.1,7.4c6.4,0,11.9-0.6,15.3-7.6"/>
<path id="path1094-6-1_2_" inkscape:connector-curvature="0" sodipodi:nodetypes="csc" class="st0" d="M346.5,244.5
	c1.8,5.7,7.2,7.4,14.1,7.4c6.4,0,11.9-0.6,15.3-7.6"/>
<path id="path1094-8-2_2_" inkscape:connector-curvature="0" sodipodi:nodetypes="csc" class="st0" d="M317,244.7
	c1.8,5.7,7.2,7.4,14.1,7.4c6.4,0,11.9-0.6,15.3-7.6"/>
<path id="path1094-2-8_2_" inkscape:connector-curvature="0" sodipodi:nodetypes="csc" class="st0" d="M287.6,244.8
	c1.8,5.7,7.2,7.4,14.1,7.4c6.4,0,11.9-0.6,15.3-7.6"/>
<path id="path1094-1-3_2_" inkscape:connector-curvature="0" sodipodi:nodetypes="csc" class="st0" d="M258.2,244.9
	c1.8,5.7,7.2,7.4,14.1,7.4c6.4,0,11.9-0.6,15.3-7.6"/>
<path id="path1094-24-3_2_" inkscape:connector-curvature="0" sodipodi:nodetypes="csc" class="st0" d="M228.8,245.1
	c1.8,5.7,7.2,7.4,14.1,7.4c6.4,0,11.9-0.6,15.3-7.6"/>
<path id="path1094-87-6_2_" inkscape:connector-curvature="0" sodipodi:nodetypes="csc" class="st0" d="M199.4,245.2
	c1.8,5.7,7.2,7.4,14.1,7.4c6.4,0,11.9-0.6,15.3-7.6"/>
<path id="path1159-9_2_" inkscape:connector-curvature="0" class="st0" d="M199.4,245.2v102.4"/>
<g>
	<path d="M252.8,296.7c-0.3,4.5-2.8,8.1-9.9,8.1c-6.9,0-10.4-3.4-10.4-11.9c0-8.3,3.3-12.1,10.4-12.1c5.6,0,9.1,2.4,9.9,7.6h-4.7
		c-0.5-2-1.2-3.6-5.1-3.6s-5.6,2.3-5.6,8.5c0,4.8,1.3,7.4,5.7,7.4c3.2,0,4.7-1,5.1-4H252.8z"/>
	<path d="M263.9,304.7c-4.4,0-8.6-1.7-8.6-8.9c0-6.1,3.1-8.9,8.6-8.9s8.7,2.8,8.7,8.9C272.6,302,269.4,304.7,263.9,304.7z
		 M263.9,290.6c-3,0-4.1,1.3-4.1,5.2c0,3.9,1.1,5.2,4.1,5.2c2.9,0,4.1-1.3,4.1-5.2C268,292,267,290.6,263.9,290.6z"/>
	<path d="M275.9,281.3h4.4v22.9h-4.4V281.3z"/>
	<path d="M284.8,281.3h4.4v22.9h-4.4V281.3z"/>
	<path d="M308.1,299.5c-0.5,3.9-3.1,5.2-7.7,5.2c-5.2,0-8.1-1.8-8.1-9c0-4.8,1.3-8.7,8.3-8.7c5.9,0,7.7,2.8,7.7,10.1h-11.4
		c0.2,3.2,1,4,3.5,4c1.7,0,2.7-0.3,3.2-1.6H308.1z M303.9,294.3c-0.2-3.1-1.4-3.6-3.5-3.6c-2.6,0-3.3,0.9-3.4,3.6H303.9z"/>
	<path d="M315.9,306c0.2,0.8,0.4,1.8,3.2,1.8c2.9,0,3.4-1,3.4-3.8v-1.6c-0.9,1.3-2.2,1.9-4.6,1.9c-4.8,0-7.3-2.4-7.3-8.6
		c0-6.1,2.4-8.7,7-8.7c3.2,0,4.6,1.2,5.2,2.2v-1.8h4.2v15.7c0,4.6-0.4,8-8.2,8c-4.6,0-7.6-1.2-7.7-5.1H315.9z M318.7,300.7
		c2.9,0,3.8-1.5,3.8-5.1c0-3.6-0.9-4.9-3.8-4.9c-2.5,0-3.5,1-3.5,5.1C315.1,299.4,315.9,300.7,318.7,300.7z"/>
	<path d="M333.3,280.9c2.1,0,2.6,0.7,2.6,2.4s-0.5,2.4-2.6,2.4c-2.1,0-2.5-0.7-2.5-2.4S331.2,280.9,333.3,280.9z M331.1,287.4h4.4
		v16.9h-4.4V287.4z"/>
	<path d="M351,302.5c-1.2,1.9-3.2,2.2-5.2,2.2c-4.1,0-5.8-1.5-5.8-6.3v-10.9h4.4v10.7c0,2.3,0.7,3,2.9,3c2.3,0,3.4-0.8,3.4-3.9v-9.7
		h4.4v16.9H351V302.5z"/>
	<path d="M363.6,287.4v1.8c1.1-1.6,2.6-2.2,5.1-2.2c2.6,0,3.7,0.7,4.6,2.4c0.8-1.1,1.9-2.4,5.1-2.4c4.4,0,5.4,2.3,5.4,5.9v11.4h-4.4
		v-10c0-2.7-0.5-3.6-2.5-3.6c-2.8,0-3,1.7-3,5.6v8.1h-4.4v-9.8c0-2.8,0-3.8-2.6-3.8c-2.8,0-3,1.2-3,5.4v8.2h-4.4v-16.9H363.6z"/>
	<path d="M418.1,294.7c0,7.6-4.2,10.1-10.8,10.1c-5.7,0-11.3-2.1-11.3-12c0-10.4,6.2-12,11.3-12c6.2,0,10,2.3,10.4,7.6H413
		c-0.3-2.2-1.5-3.6-5.5-3.6c-4.4,0-6.6,1.7-6.6,8c0,6.6,2.4,7.9,6.5,7.9c4.7,0,6-1.5,6-4.9H408V292h10V294.7z"/>
	<path d="M429.3,304.7c-4.4,0-8.6-1.7-8.6-8.9c0-6.1,3.1-8.9,8.6-8.9c5.6,0,8.7,2.8,8.7,8.9C438,302,434.8,304.7,429.3,304.7z
		 M429.3,290.6c-3,0-4.1,1.3-4.1,5.2c0,3.9,1.1,5.2,4.1,5.2c2.9,0,4.1-1.3,4.1-5.2C433.4,292,432.4,290.6,429.3,290.6z"/>
	<path d="M444.6,299.1c0.2,1.8,1.2,2.3,3.6,2.3c2.3,0,3.1-0.4,3.1-1.6c0-1-0.4-1.3-2-1.7l-4.7-1.1c-2.5-0.6-4-1.7-4-4.6
		c0-3.4,2-5.3,7.4-5.3c4.1,0,6.9,1.1,7.2,5.2h-4.4c-0.2-1.5-0.7-1.9-2.8-1.9c-2.3,0-2.9,0.5-2.9,1.5c0,0.8,0.4,1.2,1.9,1.6l4.2,1
		c3.1,0.7,4.6,1.9,4.6,4.8c0,4-3,5.6-7.6,5.6c-4.4,0-7.8-1.4-8-5.6H444.6z"/>
	<path d="M466.8,291h-2.9v7.2c0,2.4,0,2.8,1.8,2.8c0.7,0,1.1-0.1,1.1-0.1v3.3c0,0-1.5,0.3-3.2,0.3c-4.2,0-4.2-1.7-4.2-6.2V291h-2.2
		v-3.6h2.2v-4.2h4.4v4.2h2.9V291z"/>
	<path d="M477.3,304.7c-4.4,0-8.6-1.7-8.6-8.9c0-6.1,3.1-8.9,8.6-8.9s8.7,2.8,8.7,8.9C486,302,482.8,304.7,477.3,304.7z
		 M477.3,290.6c-3,0-4.1,1.3-4.1,5.2c0,3.9,1.1,5.2,4.1,5.2c2.9,0,4.1-1.3,4.1-5.2C481.4,292,480.4,290.6,477.3,290.6z"/>
	<path d="M493.4,287.4v1.8c1.1-1.6,2.6-2.2,5.1-2.2c2.6,0,3.7,0.7,4.6,2.4c0.8-1.1,1.9-2.4,5.1-2.4c4.4,0,5.4,2.3,5.4,5.9v11.4h-4.4
		v-10c0-2.7-0.5-3.6-2.5-3.6c-2.8,0-3,1.7-3,5.6v8.1h-4.4v-9.8c0-2.8,0-3.8-2.6-3.8c-2.8,0-3,1.2-3,5.4v8.2h-4.4v-16.9H493.4z"/>
	<path d="M520,280.9c2.1,0,2.6,0.7,2.6,2.4s-0.5,2.4-2.6,2.4c-2.1,0-2.5-0.7-2.5-2.4S517.9,280.9,520,280.9z M517.8,287.4h4.4v16.9
		h-4.4V287.4z"/>
	<path d="M526,292.5c0.2-4.4,2.7-5.5,7.3-5.5c4.7,0,7.1,1.2,7.1,4.9v12.4h-4.3V303c-0.9,0.9-2.5,1.7-5.2,1.7c-4,0-5.5-1.8-5.5-4.7
		c0-3.7,2.4-5.2,4.9-5.5l5.6-0.9v-1c0-1.6-0.8-2-2.9-2c-2.2,0-2.7,0.5-2.9,2H526z M535.9,296.5l-3.1,0.5c-1.7,0.3-2.9,0.6-2.9,2.4
		c0,1.3,0.6,2,2.6,2c2.7,0,3.4-1.5,3.4-3.6V296.5z"/>
	<path d="M555.2,294.6c0-2.6,0-3.9-2.9-3.9c-3.2,0-3.5,1.7-3.5,5.6v8h-4.4v-16.9h4.2v2.2c1.2-1.6,2.5-2.6,5.6-2.6
		c4.3,0,5.4,1.9,5.4,7v10.3h-4.4V294.6z"/>
	<path d="M575,302.5c-1.2,1.9-3.2,2.2-5.2,2.2c-4.1,0-5.8-1.5-5.8-6.3v-10.9h4.4v10.7c0,2.3,0.7,3,2.9,3c2.3,0,3.4-0.8,3.4-3.9v-9.7
		h4.4v16.9H575V302.5z"/>
	<path d="M587.6,287.4v1.8c1.1-1.6,2.6-2.2,5.1-2.2c2.6,0,3.7,0.7,4.6,2.4c0.8-1.1,1.9-2.4,5.1-2.4c4.4,0,5.4,2.3,5.4,5.9v11.4h-4.4
		v-10c0-2.7-0.5-3.6-2.5-3.6c-2.8,0-3,1.7-3,5.6v8.1h-4.4v-9.8c0-2.8,0-3.8-2.6-3.8c-2.8,0-3,1.2-3,5.4v8.2h-4.4v-16.9H587.6z"/>
</g>
<g>
	<path d="M307.4,323.7c0.1,1.1,0.3,1.7,2.4,1.7c1.1,0,2-0.2,2-1.3c0-0.7-0.3-1-1.2-1.3l-2.6-0.7c-1.3-0.3-2.5-1-2.5-2.9
		c0-1.5,0.7-3.2,4-3.2c3.2,0,4.2,1.5,4.2,3.4h-2.2c-0.1-0.9-0.1-1.5-2.1-1.5c-1.1,0-1.7,0.2-1.7,1.1c0,0.8,0.5,1,1.1,1.2l2.4,0.6
		c1.5,0.4,2.8,1,2.8,3.1c0,3-2.6,3.3-4.2,3.3c-3.5,0-4.5-1.4-4.6-3.6H307.4z"/>
	<path d="M328,327.1c-0.2-0.8-0.4-1.5-0.6-2.3H323c-0.2,0.8-0.4,1.5-0.6,2.3H320c1.1-3.6,2.4-7.2,4-10.8h2.5c1.6,3.5,2.9,7.1,4,10.8
		H328z M323.6,323h3.2c-0.5-1.4-1-2.8-1.6-4.2C324.6,320.2,324.1,321.6,323.6,323z"/>
	<path d="M337,316.3h2.3l4.2,7.1v-7.1h2.2v10.8h-2.2l-4.2-7.1v7.1H337V316.3z"/>
	<path d="M357.6,316.3c3.4,0,4.6,1.5,4.6,5.3c0,3.7-1.3,5.4-4.6,5.4h-4.5v-10.8H357.6z M355.4,318.2v7.1h2c2.2,0,2.7-0.8,2.7-3.6
		c0-2.9-0.3-3.5-2.9-3.5H355.4z"/>
	<path d="M373.9,316.1c2.6,0,5.2,0.8,5.2,5.6c0,4.7-2.6,5.6-5.2,5.6c-2.7,0-5.2-1-5.2-5.6C368.7,316.8,371.5,316.1,373.9,316.1z
		 M374,325.4c1.5,0,2.8-0.3,2.8-3.8c0-2.7-0.8-3.7-3-3.7c-2,0-2.9,0.8-2.9,3.8C371,324.9,372,325.4,374,325.4z"/>
	<path d="M386,316.3h3.3l2,5.8l1.9-5.8h3.3v10.8h-2.2v-7.9l-1.9,5.6h-2.2l-1.9-5.6v7.9H386V316.3z"/>
	<path d="M403.7,316.3h2.2v10.8h-2.2V316.3z"/>
	<path d="M413.3,316.3h7.9v1.8h-5.7v2.4h5.3v1.8h-5.3v2.9h6v1.8h-8.2V316.3z"/>
	<path d="M428.6,316.3h4.7c2.2,0,4.2,0.1,4.2,3.2c0,2.1-0.9,2.9-2.1,3.2l2.8,4.4h-2.7l-2.6-4.2h-2v4.2h-2.2V316.3z M430.8,318.2v2.8
		h2c1.8,0,2.4-0.2,2.4-1.5c0-1.1-0.4-1.3-2.3-1.3H430.8z"/>
	<path d="M443.8,325.3l5.6-7.1h-5.3v-1.8h8.1v1.7l-5.7,7.1h5.8v1.9h-8.5V325.3z"/>
	<path d="M470.8,325.3V319l-1.8,0.6V318l2.2-1.6h1.7v8.8h1.8v1.8H469v-1.8H470.8z"/>
	<path d="M486.5,319.1c0-0.6-0.3-1-1.2-1c-1.4,0-1.6,1.1-1.7,2.8c0.4-0.5,1.1-0.7,2-0.7c2.4,0,3.2,1.3,3.2,3.5
		c0,2.5-1.2,3.7-3.6,3.7c-2.7,0-3.7-1.5-3.7-5.7c0-2.1,0.2-5.2,4-5.2c2,0,2.9,0.9,3.1,2.7H486.5z M485.2,325.6c0.7,0,1.4-0.2,1.4-2
		c0-1.4-0.4-1.8-1.5-1.8c-1.1,0-1.6,0.4-1.6,1.8C483.6,325.2,484.2,325.6,485.2,325.6z"/>
	<path d="M502.3,321.9c0,3.7-0.8,5.5-3.6,5.5s-3.6-1.7-3.6-5.4c0-3.8,0.8-5.5,3.6-5.5C501.5,316.4,502.3,318.1,502.3,321.9z
		 M497.2,321.9c0,3.2,0.3,3.8,1.5,3.8s1.5-0.6,1.5-3.8s-0.4-3.8-1.5-3.8S497.2,318.7,497.2,321.9z"/>
	<path d="M515.7,327.1h-7.2c0-2.6,1.5-3.8,3-4.7c1.9-1.2,2.1-1.4,2.1-2.5c0-1.3-0.3-1.7-1.4-1.7c-1.1,0-1.4,0.4-1.4,1.9h-2.1
		c0.1-2.5,1-3.6,3.5-3.6s3.6,1,3.6,3.3c0,2.1-0.9,2.7-2.7,3.7c-1.3,0.8-1.5,1-1.8,1.8h4.6V327.1z"/>
</g>
<rect y="781.6" class="st1" width="850.4" height="68.8"/>
<path class="st2" d="M149.9,989.2H28.7c-5.8,0-10.4-4.7-10.4-10.4V820.7c0-5.8,4.7-10.4,10.4-10.4h121.1c5.8,0,10.4,4.7,10.4,10.4
	v158.1C160.3,984.5,155.6,989.2,149.9,989.2z"/>
<text transform="matrix(1 0 0 1.24 24.0059 821.6353)" class="st3 st4 st5">Zbr</text>
<text transform="matrix(1 0 0 1 83.25 821)" class="st3 st6 st7">Collegium Gostomianum logo previews</text>
<rect x="66.5" y="801.3" class="st3" width="1.5" height="30.8"/>
<path id="path1068-1_3_" inkscape:connector-curvature="0" sodipodi:nodetypes="cccccccccc" class="st0" d="M637.2,561.5V457.7
	l-5.1,0.4c1-7.1-2.1-9.1-6.3-9.9c-13.4-1.4-24.7-11.3-36-21c1.7-6.5-2.2-7.3-6.7-7.5c-4.3-1.3-8.3-5.3-12.3-9.1l-0.4-4.8h-2.4
	c-0.1-2.1,1.9-4.6-1.2-6.1"/>
<path id="path1068-3-5_6_" inkscape:connector-curvature="0" sodipodi:nodetypes="cccccccccc" class="st0" d="M496.2,457.2l5.1,0.4
	c-1-7,2.1-9,6.3-9.8c13.4-1.4,24.7-11.2,36-20.8c-1.7-6.4,2.2-7.3,6.7-7.5c4.3-1.3,8.3-5.2,12.3-9l0.4-4.7h2.4
	c0.1-2.1-1.9-4.5,1.2-6"/>
<path id="path1068-3-5_5_" inkscape:connector-curvature="0" sodipodi:nodetypes="cccccccccc" class="st0" d="M496.2,560"/>
<path id="path1094-69_3_" inkscape:connector-curvature="0" sodipodi:nodetypes="csc" class="st0" d="M466.8,457.9
	c1.8,5.7,7.2,7.4,14.1,7.4c6.4,0,11.9-0.6,15.3-7.6"/>
<path id="path1094-9-7_3_" inkscape:connector-curvature="0" sodipodi:nodetypes="csc" class="st0" d="M437.4,458
	c1.8,5.7,7.2,7.4,14.1,7.4c6.4,0,11.9-0.6,15.3-7.6"/>
<path id="path1094-4-2_3_" inkscape:connector-curvature="0" sodipodi:nodetypes="csc" class="st0" d="M408,458.1
	c1.8,5.7,7.2,7.4,14.1,7.4c6.4,0,11.9-0.6,15.3-7.6"/>
<path id="path1094-90-5_3_" inkscape:connector-curvature="0" sodipodi:nodetypes="csc" class="st0" d="M378.5,458.3
	c1.8,5.7,7.2,7.4,14.1,7.4c6.4,0,11.9-0.6,15.3-7.6"/>
<path id="path1094-6-1_3_" inkscape:connector-curvature="0" sodipodi:nodetypes="csc" class="st0" d="M349.1,458.4
	c1.8,5.7,7.2,7.4,14.1,7.4c6.4,0,11.9-0.6,15.3-7.6"/>
<path id="path1094-8-2_3_" inkscape:connector-curvature="0" sodipodi:nodetypes="csc" class="st0" d="M319.7,458.5
	c1.8,5.7,7.2,7.4,14.1,7.4c6.4,0,11.9-0.6,15.3-7.6"/>
<path id="path1094-2-8_3_" inkscape:connector-curvature="0" sodipodi:nodetypes="csc" class="st0" d="M290.3,458.6
	c1.8,5.7,7.2,7.4,14.1,7.4c6.4,0,11.9-0.6,15.3-7.6"/>
<path id="path1094-1-3_3_" inkscape:connector-curvature="0" sodipodi:nodetypes="csc" class="st0" d="M260.9,458.8
	c1.8,5.7,7.2,7.4,14.1,7.4c6.4,0,11.9-0.6,15.3-7.6"/>
<path id="path1094-24-3_3_" inkscape:connector-curvature="0" sodipodi:nodetypes="csc" class="st0" d="M231.4,458.9
	c1.8,5.7,7.2,7.4,14.1,7.4c6.4,0,11.9-0.6,15.3-7.6"/>
<path id="path1094-87-6_3_" inkscape:connector-curvature="0" sodipodi:nodetypes="csc" class="st0" d="M202,459
	c1.8,5.7,7.2,7.4,14.1,7.4c6.4,0,11.9-0.6,15.3-7.6"/>
<path id="path1159-9_3_" inkscape:connector-curvature="0" class="st0" d="M202,459v102.4"/>
<g>
	<path d="M255.5,510.6c-0.3,4.5-2.8,8.1-9.9,8.1c-6.9,0-10.4-3.4-10.4-11.9c0-8.3,3.3-12.1,10.4-12.1c5.6,0,9.1,2.4,9.9,7.6h-4.7
		c-0.5-2-1.2-3.6-5.1-3.6s-5.6,2.3-5.6,8.5c0,4.8,1.3,7.4,5.7,7.4c3.2,0,4.7-1,5.1-4H255.5z"/>
	<path d="M266.6,518.5c-4.4,0-8.6-1.7-8.6-8.9c0-6.1,3.1-8.9,8.6-8.9s8.7,2.8,8.7,8.9C275.3,515.9,272.1,518.5,266.6,518.5z
		 M266.6,504.5c-3,0-4.1,1.3-4.1,5.2c0,3.9,1.1,5.2,4.1,5.2c2.9,0,4.1-1.3,4.1-5.2C270.7,505.9,269.7,504.5,266.6,504.5z"/>
	<path d="M278.6,495.2h4.4v22.9h-4.4V495.2z"/>
	<path d="M287.5,495.2h4.4v22.9h-4.4V495.2z"/>
	<path d="M310.8,513.3c-0.5,3.9-3.1,5.2-7.7,5.2c-5.2,0-8.1-1.8-8.1-9c0-4.8,1.3-8.7,8.3-8.7c5.9,0,7.7,2.8,7.7,10.1h-11.4
		c0.2,3.2,1,4,3.5,4c1.7,0,2.7-0.3,3.2-1.6H310.8z M306.5,508.1c-0.2-3.1-1.4-3.6-3.5-3.6c-2.6,0-3.3,0.9-3.4,3.6H306.5z"/>
	<path d="M318.6,519.9c0.2,0.8,0.4,1.8,3.2,1.8c2.9,0,3.4-1,3.4-3.8v-1.6c-0.9,1.3-2.2,1.9-4.6,1.9c-4.8,0-7.3-2.4-7.3-8.6
		c0-6.1,2.4-8.7,7-8.7c3.2,0,4.6,1.2,5.2,2.2v-1.8h4.2V517c0,4.6-0.4,8-8.2,8c-4.6,0-7.6-1.2-7.7-5.1H318.6z M321.4,514.5
		c2.9,0,3.8-1.5,3.8-5.1c0-3.6-0.9-4.9-3.8-4.9c-2.5,0-3.5,1-3.5,5.1C317.8,513.2,318.6,514.5,321.4,514.5z"/>
	<path d="M336,494.7c2.1,0,2.6,0.7,2.6,2.4s-0.5,2.4-2.6,2.4c-2.1,0-2.5-0.7-2.5-2.4S333.9,494.7,336,494.7z M333.7,501.3h4.4v16.9
		h-4.4V501.3z"/>
	<path d="M353.6,516.3c-1.2,1.9-3.2,2.2-5.2,2.2c-4.1,0-5.8-1.5-5.8-6.3v-10.9h4.4v10.7c0,2.3,0.7,3,2.9,3c2.3,0,3.4-0.8,3.4-3.9
		v-9.7h4.4v16.9h-4.2V516.3z"/>
	<path d="M366.2,501.3v1.8c1.1-1.6,2.6-2.2,5.1-2.2c2.6,0,3.7,0.7,4.6,2.4c0.8-1.1,1.9-2.4,5.1-2.4c4.4,0,5.4,2.3,5.4,5.9v11.4H382
		v-10c0-2.7-0.5-3.6-2.5-3.6c-2.8,0-3,1.7-3,5.6v8.1H372v-9.8c0-2.8,0-3.8-2.6-3.8c-2.8,0-3,1.2-3,5.4v8.2H362v-16.9H366.2z"/>
	<path d="M420.8,508.5c0,7.6-4.2,10.1-10.8,10.1c-5.7,0-11.3-2.1-11.3-12c0-10.4,6.2-12,11.3-12c6.2,0,10,2.3,10.4,7.6h-4.7
		c-0.3-2.2-1.5-3.6-5.5-3.6c-4.4,0-6.6,1.7-6.6,8c0,6.6,2.4,7.9,6.5,7.9c4.7,0,6-1.5,6-4.9h-5.3v-3.9h10V508.5z"/>
	<path d="M432,518.5c-4.4,0-8.6-1.7-8.6-8.9c0-6.1,3.1-8.9,8.6-8.9s8.7,2.8,8.7,8.9C440.7,515.9,437.5,518.5,432,518.5z M432,504.5
		c-3,0-4.1,1.3-4.1,5.2c0,3.9,1.1,5.2,4.1,5.2c2.9,0,4.1-1.3,4.1-5.2C436.1,505.9,435.1,504.5,432,504.5z"/>
	<path d="M447.3,512.9c0.2,1.8,1.2,2.3,3.6,2.3c2.3,0,3.1-0.4,3.1-1.6c0-1-0.4-1.3-2-1.7l-4.7-1.1c-2.5-0.6-4-1.7-4-4.6
		c0-3.4,2-5.3,7.4-5.3c4.1,0,6.9,1.1,7.2,5.2h-4.4c-0.2-1.5-0.7-1.9-2.8-1.9c-2.3,0-2.9,0.5-2.9,1.5c0,0.8,0.4,1.2,1.9,1.6l4.2,1
		c3.1,0.7,4.6,1.9,4.6,4.8c0,4-3,5.6-7.6,5.6c-4.4,0-7.8-1.4-8-5.6H447.3z"/>
	<path d="M469.5,504.8h-2.9v7.2c0,2.4,0,2.8,1.8,2.8c0.7,0,1.1-0.1,1.1-0.1v3.3c0,0-1.5,0.3-3.2,0.3c-4.2,0-4.2-1.7-4.2-6.2v-7.3
		h-2.2v-3.6h2.2v-4.2h4.4v4.2h2.9V504.8z"/>
	<path d="M480,518.5c-4.4,0-8.6-1.7-8.6-8.9c0-6.1,3.1-8.9,8.6-8.9s8.7,2.8,8.7,8.9C488.7,515.9,485.5,518.5,480,518.5z M480,504.5
		c-3,0-4.1,1.3-4.1,5.2c0,3.9,1.1,5.2,4.1,5.2c2.9,0,4.1-1.3,4.1-5.2C484.1,505.9,483.1,504.5,480,504.5z"/>
	<path d="M496,501.3v1.8c1.1-1.6,2.6-2.2,5.1-2.2c2.6,0,3.7,0.7,4.6,2.4c0.8-1.1,1.9-2.4,5.1-2.4c4.4,0,5.4,2.3,5.4,5.9v11.4h-4.4
		v-10c0-2.7-0.5-3.6-2.5-3.6c-2.8,0-3,1.7-3,5.6v8.1h-4.4v-9.8c0-2.8,0-3.8-2.6-3.8c-2.8,0-3,1.2-3,5.4v8.2h-4.4v-16.9H496z"/>
	<path d="M522.6,494.7c2.1,0,2.6,0.7,2.6,2.4s-0.5,2.4-2.6,2.4c-2.1,0-2.5-0.7-2.5-2.4S520.6,494.7,522.6,494.7z M520.4,501.3h4.4
		v16.9h-4.4V501.3z"/>
	<path d="M528.7,506.4c0.2-4.4,2.7-5.5,7.3-5.5c4.7,0,7.1,1.2,7.1,4.9v12.4h-4.3v-1.3c-0.9,0.9-2.5,1.7-5.2,1.7
		c-4,0-5.5-1.8-5.5-4.7c0-3.7,2.4-5.2,4.9-5.5l5.6-0.9v-1c0-1.6-0.8-2-2.9-2c-2.2,0-2.7,0.5-2.9,2H528.7z M538.6,510.3l-3.1,0.5
		c-1.7,0.3-2.9,0.6-2.9,2.4c0,1.3,0.6,2,2.6,2c2.7,0,3.4-1.5,3.4-3.6V510.3z"/>
	<path d="M557.9,508.4c0-2.6,0-3.9-2.9-3.9c-3.2,0-3.5,1.7-3.5,5.6v8H547v-16.9h4.2v2.2c1.2-1.6,2.5-2.6,5.6-2.6
		c4.3,0,5.4,1.9,5.4,7v10.3h-4.4V508.4z"/>
	<path d="M577.6,516.3c-1.2,1.9-3.2,2.2-5.2,2.2c-4.1,0-5.8-1.5-5.8-6.3v-10.9h4.4v10.7c0,2.3,0.7,3,2.9,3c2.3,0,3.4-0.8,3.4-3.9
		v-9.7h4.4v16.9h-4.2V516.3z"/>
	<path d="M590.3,501.3v1.8c1.1-1.6,2.6-2.2,5.1-2.2c2.6,0,3.7,0.7,4.6,2.4c0.8-1.1,1.9-2.4,5.1-2.4c4.4,0,5.4,2.3,5.4,5.9v11.4H606
		v-10c0-2.7-0.5-3.6-2.5-3.6c-2.8,0-3,1.7-3,5.6v8.1H596v-9.8c0-2.8,0-3.8-2.6-3.8c-2.8,0-3,1.2-3,5.4v8.2H586v-16.9H590.3z"/>
</g>
<g>
	<path d="M310.1,537.6c0.1,1.1,0.3,1.7,2.4,1.7c1.1,0,2-0.2,2-1.3c0-0.7-0.3-1-1.2-1.3l-2.6-0.7c-1.3-0.3-2.5-1-2.5-2.9
		c0-1.5,0.7-3.2,4-3.2c3.2,0,4.2,1.5,4.2,3.4h-2.2c-0.1-0.9-0.1-1.5-2.1-1.5c-1.1,0-1.7,0.2-1.7,1.1c0,0.8,0.5,1,1.1,1.2l2.4,0.6
		c1.5,0.4,2.8,1,2.8,3.1c0,3-2.6,3.3-4.2,3.3c-3.5,0-4.5-1.4-4.6-3.6H310.1z"/>
	<path d="M330.7,540.9c-0.2-0.8-0.4-1.5-0.6-2.3h-4.4c-0.2,0.8-0.4,1.5-0.6,2.3h-2.4c1.1-3.6,2.4-7.2,4-10.8h2.5
		c1.6,3.5,2.9,7.1,4,10.8H330.7z M326.3,536.8h3.2c-0.5-1.4-1-2.8-1.6-4.2C327.3,534,326.7,535.4,326.3,536.8z"/>
	<path d="M339.7,530.2h2.3l4.2,7.1v-7.1h2.2v10.8h-2.2l-4.2-7.1v7.1h-2.2V530.2z"/>
	<path d="M360.3,530.2c3.4,0,4.6,1.5,4.6,5.3c0,3.7-1.3,5.4-4.6,5.4h-4.5v-10.8H360.3z M358,532v7.1h2c2.2,0,2.7-0.8,2.7-3.6
		c0-2.9-0.3-3.5-2.9-3.5H358z"/>
	<path d="M376.6,529.9c2.6,0,5.2,0.8,5.2,5.6c0,4.7-2.6,5.6-5.2,5.6c-2.7,0-5.2-1-5.2-5.6C371.4,530.7,374.1,529.9,376.6,529.9z
		 M376.7,539.3c1.5,0,2.8-0.3,2.8-3.8c0-2.7-0.8-3.7-3-3.7c-2,0-2.9,0.8-2.9,3.8C373.6,538.7,374.6,539.3,376.7,539.3z"/>
	<path d="M388.7,530.2h3.3l2,5.8l1.9-5.8h3.3v10.8h-2.2V533l-1.9,5.6h-2.2l-1.9-5.6v7.9h-2.2V530.2z"/>
	<path d="M406.4,530.2h2.2v10.8h-2.2V530.2z"/>
	<path d="M416,530.2h7.9v1.8h-5.7v2.4h5.3v1.8h-5.3v2.9h6v1.8H416V530.2z"/>
	<path d="M431.2,530.2h4.7c2.2,0,4.2,0.1,4.2,3.2c0,2.1-0.9,2.9-2.1,3.2l2.8,4.4h-2.7l-2.6-4.2h-2v4.2h-2.2V530.2z M433.4,532v2.8h2
		c1.8,0,2.4-0.2,2.4-1.5c0-1.1-0.4-1.3-2.3-1.3H433.4z"/>
	<path d="M446.5,539.1l5.6-7.1h-5.3v-1.8h8.1v1.7l-5.7,7.1h5.8v1.9h-8.5V539.1z"/>
	<path d="M473.5,539.1v-6.2l-1.8,0.6v-1.6l2.2-1.6h1.7v8.8h1.8v1.8h-5.7v-1.8H473.5z"/>
	<path d="M489.1,532.9c0-0.6-0.3-1-1.2-1c-1.4,0-1.6,1.1-1.7,2.8c0.4-0.5,1.1-0.7,2-0.7c2.4,0,3.2,1.3,3.2,3.5
		c0,2.5-1.2,3.7-3.6,3.7c-2.7,0-3.7-1.5-3.7-5.7c0-2.1,0.2-5.2,4-5.2c2,0,2.9,0.9,3.1,2.7H489.1z M487.9,539.5c0.7,0,1.4-0.2,1.4-2
		c0-1.4-0.4-1.8-1.5-1.8c-1.1,0-1.6,0.4-1.6,1.8C486.3,539,486.8,539.5,487.9,539.5z"/>
	<path d="M505,535.7c0,3.7-0.8,5.5-3.6,5.5s-3.6-1.7-3.6-5.4c0-3.8,0.8-5.5,3.6-5.5C504.2,530.2,505,532,505,535.7z M499.9,535.7
		c0,3.2,0.3,3.8,1.5,3.8s1.5-0.6,1.5-3.8s-0.4-3.8-1.5-3.8S499.9,532.5,499.9,535.7z"/>
	<path d="M518.4,540.9h-7.2c0-2.6,1.5-3.8,3-4.7c1.9-1.2,2.1-1.4,2.1-2.5c0-1.3-0.3-1.7-1.4-1.7c-1.1,0-1.4,0.4-1.4,1.9h-2.1
		c0.1-2.5,1-3.6,3.5-3.6s3.6,1,3.6,3.3c0,2.1-0.9,2.7-2.7,3.7c-1.3,0.8-1.5,1-1.8,1.8h4.6V540.9z"/>
</g>
<g>
	<g>
		<path d="M404.4,552.4h1.6v7.9h-1.6V552.4z"/>
		<path d="M411.4,552.4h1.6v6.5h3.9v1.4h-5.6V552.4z"/>
		<path d="M425.1,552.2c1.9,0,3.8,0.6,3.8,4.1c0,3.5-1.9,4.1-3.8,4.1c-2,0-3.8-0.7-3.8-4.1C421.3,552.7,423.3,552.2,425.1,552.2z
			 M425.2,559c1.1,0,2.1-0.2,2.1-2.8c0-2-0.6-2.7-2.2-2.7c-1.5,0-2.1,0.6-2.1,2.8C422.9,558.6,423.7,559,425.2,559z"/>
	</g>
	<rect x="404.7" y="551.4" transform="matrix(2.702822e-11 -1 1 2.702822e-11 -147.647 958.1182)" width="1" height="2.9"/>
	<rect x="404.7" y="558.3" transform="matrix(2.745898e-11 -1 1 2.745898e-11 -154.5316 965.0029)" width="1" height="2.9"/>
</g>
<g>
	<g>
		<path d="M581.1,275.8h1.6v7.9h-1.6V275.8z"/>
		<path d="M588.1,275.8h1.6v6.5h3.9v1.4h-5.6V275.8z"/>
		<path d="M601.8,275.6c1.9,0,3.8,0.6,3.8,4.1c0,3.5-1.9,4.1-3.8,4.1c-2,0-3.8-0.7-3.8-4.1C598,276.2,600,275.6,601.8,275.6z
			 M601.8,282.5c1.1,0,2.1-0.2,2.1-2.8c0-2-0.6-2.7-2.2-2.7c-1.5,0-2.1,0.6-2.1,2.8C599.6,282.1,600.4,282.5,601.8,282.5z"/>
	</g>
	<rect x="581.4" y="274.9" transform="matrix(2.790041e-11 -1 1 2.790041e-11 305.5933 858.2512)" width="1" height="2.9"/>
	<rect x="581.4" y="281.7" transform="matrix(2.834539e-11 -1 1 2.834539e-11 298.738 865.1064)" width="1" height="2.9"/>
</g>
</svg>
