<?xml version="1.0" encoding="utf-8"?>
<!-- Generator: Adobe Illustrator 21.0.0, SVG Export Plug-In . SVG Version: 6.00 Build 0)  -->
<svg version="1.1" id="Warstwa_1" xmlns="http://www.w3.org/2000/svg" xmlns:xlink="http://www.w3.org/1999/xlink" x="0px" y="0px"
	 viewBox="0 0 850.4 850.4" style="enable-background:new 0 0 850.4 850.4;" xml:space="preserve">
<style type="text/css">
	.st0{fill:none;stroke:#020203;stroke-width:3.8817;stroke-linecap:round;stroke-linejoin:round;}
	.st1{fill:#020203;}
	.st2{font-family:'FamiliarPro-Bold';}
	.st3{font-size:13.7918px;}
	.st4{letter-spacing:2;}
	.st5{fill:none;}
	.st6{font-size:39.8429px;}
	.st7{font-size:9.1945px;}
	.st8{font-size:47px;}
	.st9{font-size:32px;}
	.st10{font-size:9px;}
	.st11{letter-spacing:3;}
	.st12{fill:#3D3D3D;}
	.st13{fill:#FFFFFF;}
	.st14{font-family:'BrushScriptStd';}
	.st15{font-size:19px;}
	.st16{font-family:'Helvetica-Bold';}
	.st17{font-size:13px;}
</style>
<path id="path1068-1" inkscape:connector-curvature="0" sodipodi:nodetypes="cccccccccc" class="st0" d="M618.7,268.2V164.5
	l-5.1,0.4c1-7.1-2.1-9.1-6.3-9.9c-13.4-1.4-24.7-11.3-36-21c1.7-6.5-2.2-7.3-6.7-7.5c-4.3-1.3-8.3-5.3-12.3-9.1l-0.4-4.8h-2.4
	c-0.1-2.1,1.9-4.6-1.2-6.1"/>
<path id="path1068-3-5" inkscape:connector-curvature="0" sodipodi:nodetypes="cccccccccc" class="st0" d="M477.7,266.8V164l5.1,0.4
	c-1-7,2.1-9,6.3-9.8c13.4-1.4,24.7-11.2,36-20.8c-1.7-6.4,2.2-7.3,6.7-7.5c4.3-1.3,8.3-5.2,12.3-9l0.4-4.7h2.4
	c0.1-2.1-1.9-4.5,1.2-6"/>
<path id="path1094-69" inkscape:connector-curvature="0" sodipodi:nodetypes="csc" class="st0" d="M448.3,164.6
	c1.8,5.7,7.2,7.4,14.1,7.4c6.4,0,11.9-0.6,15.3-7.6"/>
<path id="path1094-9-7" inkscape:connector-curvature="0" sodipodi:nodetypes="csc" class="st0" d="M418.8,164.8
	c1.8,5.7,7.2,7.4,14.1,7.4c6.4,0,11.9-0.6,15.3-7.6"/>
<path id="path1094-4-2" inkscape:connector-curvature="0" sodipodi:nodetypes="csc" class="st0" d="M389.4,164.9
	c1.8,5.7,7.2,7.4,14.1,7.4c6.4,0,11.9-0.6,15.3-7.6"/>
<path id="path1094-90-5" inkscape:connector-curvature="0" sodipodi:nodetypes="csc" class="st0" d="M360,165
	c1.8,5.7,7.2,7.4,14.1,7.4c6.4,0,11.9-0.6,15.3-7.6"/>
<path id="path1094-6-1" inkscape:connector-curvature="0" sodipodi:nodetypes="csc" class="st0" d="M330.6,165.1
	c1.8,5.7,7.2,7.4,14.1,7.4c6.4,0,11.9-0.6,15.3-7.6"/>
<path id="path1094-8-2" inkscape:connector-curvature="0" sodipodi:nodetypes="csc" class="st0" d="M301.2,165.3
	c1.8,5.7,7.2,7.4,14.1,7.4c6.4,0,11.9-0.6,15.3-7.6"/>
<path id="path1094-2-8" inkscape:connector-curvature="0" sodipodi:nodetypes="csc" class="st0" d="M271.7,165.4
	c1.8,5.7,7.2,7.4,14.1,7.4c6.4,0,11.9-0.6,15.3-7.6"/>
<path id="path1094-1-3" inkscape:connector-curvature="0" sodipodi:nodetypes="csc" class="st0" d="M242.3,165.5
	c1.8,5.7,7.2,7.4,14.1,7.4c6.4,0,11.9-0.6,15.3-7.6"/>
<path id="path1094-24-3" inkscape:connector-curvature="0" sodipodi:nodetypes="csc" class="st0" d="M212.9,165.7
	c1.8,5.7,7.2,7.4,14.1,7.4c6.4,0,11.9-0.6,15.3-7.6"/>
<path id="path1094-87-6" inkscape:connector-curvature="0" sodipodi:nodetypes="csc" class="st0" d="M183.5,165.8
	c1.8,5.7,7.2,7.4,14.1,7.4c6.4,0,11.9-0.6,15.3-7.6"/>
<path id="path1159-9" inkscape:connector-curvature="0" class="st0" d="M183.5,165.8v102.4"/>
<text transform="matrix(1 0 0 1 491.049 214.7332)" class="st1 st2 st3 st4">SANDOMIERZ</text>
<text transform="matrix(1 0 0 1 491.049 252.3577)" class="st5 st2 st3 st4">SANDOMIERZ</text>
<rect x="193.1" y="185.4" class="st5" width="395.4" height="158.4"/>
<text transform="matrix(1 0 0 1 193.0763 213.9842)"><tspan x="0" y="0" class="st1 st2 st6">Collegium </tspan><tspan x="0" y="47.8" class="st1 st2 st6">Gostomianum</tspan></text>
<polygon class="st5" points="892.2,442.5 581.9,452.7 581.9,217.2 892.2,217.2 "/>
<text transform="matrix(1 0 0 1 581.922 223.8123)" class="st1 st2 st7">1602</text>
<path id="path1068-1_1_" inkscape:connector-curvature="0" sodipodi:nodetypes="cccccccccc" class="st0" d="M618.7,468V364.3
	l-5.1,0.4c1-7.1-2.1-9.1-6.3-9.9c-13.4-1.4-24.7-11.3-36-21c1.7-6.5-2.2-17.6-6.7-17.8c-4.3-1.3-8.3-5.3-12.3-9.1l-0.4-4.8h-2.4
	c-0.1-2.1,1.9-4.6-1.2-6.1"/>
<path id="path1068-3-5_1_" inkscape:connector-curvature="0" sodipodi:nodetypes="cccccccccc" class="st0" d="M477.7,466.5V363.8
	l5.1,0.4c-1-7,2.1-9,6.3-9.8c13.4-1.4,24.7-11.2,36-20.8c-1.7-6.4,2.2-17.5,6.7-17.7c4.3-1.3,8.3-5.2,12.3-9l0.4-4.7h2.4
	c0.1-2.1-1.9-4.5,1.2-6"/>
<path id="path1094-69_1_" inkscape:connector-curvature="0" sodipodi:nodetypes="csc" class="st0" d="M448.3,364.4
	c1.8,5.7,7.2,7.4,14.1,7.4c6.4,0,11.9-0.6,15.3-7.6"/>
<path id="path1094-9-7_1_" inkscape:connector-curvature="0" sodipodi:nodetypes="csc" class="st0" d="M418.8,364.5
	c1.8,5.7,7.2,7.4,14.1,7.4c6.4,0,11.9-0.6,15.3-7.6"/>
<path id="path1094-4-2_1_" inkscape:connector-curvature="0" sodipodi:nodetypes="csc" class="st0" d="M389.4,364.7
	c1.8,5.7,7.2,7.4,14.1,7.4c6.4,0,11.9-0.6,15.3-7.6"/>
<path id="path1094-90-5_1_" inkscape:connector-curvature="0" sodipodi:nodetypes="csc" class="st0" d="M360,364.8
	c1.8,5.7,7.2,7.4,14.1,7.4c6.4,0,11.9-0.6,15.3-7.6"/>
<path id="path1094-6-1_1_" inkscape:connector-curvature="0" sodipodi:nodetypes="csc" class="st0" d="M330.6,364.9
	c1.8,5.7,7.2,7.4,14.1,7.4c6.4,0,11.9-0.6,15.3-7.6"/>
<path id="path1094-8-2_1_" inkscape:connector-curvature="0" sodipodi:nodetypes="csc" class="st0" d="M301.2,365.1
	c1.8,5.7,7.2,7.4,14.1,7.4c6.4,0,11.9-0.6,15.3-7.6"/>
<path id="path1094-2-8_1_" inkscape:connector-curvature="0" sodipodi:nodetypes="csc" class="st0" d="M271.7,365.2
	c1.8,5.7,7.2,7.4,14.1,7.4c6.4,0,11.9-0.6,15.3-7.6"/>
<path id="path1094-1-3_1_" inkscape:connector-curvature="0" sodipodi:nodetypes="csc" class="st0" d="M242.3,365.3
	c1.8,5.7,7.2,7.4,14.1,7.4c6.4,0,11.9-0.6,15.3-7.6"/>
<path id="path1094-24-3_1_" inkscape:connector-curvature="0" sodipodi:nodetypes="csc" class="st0" d="M212.9,365.4
	c1.8,5.7,7.2,7.4,14.1,7.4c6.4,0,11.9-0.6,15.3-7.6"/>
<path id="path1094-87-6_1_" inkscape:connector-curvature="0" sodipodi:nodetypes="csc" class="st0" d="M183.5,365.6
	c1.8,5.7,7.2,7.4,14.1,7.4c6.4,0,11.9-0.6,15.3-7.6"/>
<path id="path1159-9_1_" inkscape:connector-curvature="0" class="st0" d="M183.5,365.6V468"/>
<rect x="148.2" y="408.6" class="st5" width="235.7" height="88.3"/>
<text transform="matrix(1 0 0 1 230.8118 442.2673)" class="st1 st2 st8">CG</text>
<text transform="matrix(1 0 0 1 317.74 430.4739)" class="st1 st2 st3 st4">SANDOMIERZ</text>
<text transform="matrix(1 0 0 1 317.74 468.0984)" class="st5 st2 st3 st4">SANDOMIERZ</text>
<rect x="408.6" y="433" class="st5" width="310.3" height="225.3"/>
<text transform="matrix(1 0 0 1 408.613 439.5525)" class="st1 st2 st7">1602</text>
<polyline class="st5" points="597.7,416.8 597.7,554.7 202.3,554.7 202.3,416.8 "/>
<polyline class="st5" points="921.2,601.7 591.2,663.6 591.2,448.6 "/>
<path id="path1068-1_2_" inkscape:connector-curvature="0" sodipodi:nodetypes="cccccccccc" class="st0" d="M627.9,678.9V575.1
	l-5.1,0.4c1-7.1-2.1-9.1-6.3-9.9c-13.4-1.4-24.7-11.3-36-21c1.7-6.5-2.2-7.3-6.7-7.5c-4.3-1.3-8.3-5.3-12.3-9.1l-0.4-4.8h-2.4
	c-0.1-2.1,1.9-4.6-1.2-6.1"/>
<path id="path1068-3-5_4_" inkscape:connector-curvature="0" sodipodi:nodetypes="cccccccccc" class="st0" d="M486.9,574.6l5.1,0.4
	c-1-7,2.1-9,6.3-9.8c13.4-1.4,24.7-11.2,36-20.8c-1.7-6.4,2.2-7.3,6.7-7.5c4.3-1.3,8.3-5.2,12.3-9l0.4-4.7h2.4
	c0.1-2.1-1.9-4.5,1.2-6"/>
<path id="path1068-3-5_3_" inkscape:connector-curvature="0" sodipodi:nodetypes="cccccccccc" class="st0" d="M486.9,677.4"/>
<path id="path1094-69_2_" inkscape:connector-curvature="0" sodipodi:nodetypes="csc" class="st0" d="M457.5,575.3
	c1.8,5.7,7.2,7.4,14.1,7.4c6.4,0,11.9-0.6,15.3-7.6"/>
<path id="path1094-9-7_2_" inkscape:connector-curvature="0" sodipodi:nodetypes="csc" class="st0" d="M428.1,575.4
	c1.8,5.7,7.2,7.4,14.1,7.4c6.4,0,11.9-0.6,15.3-7.6"/>
<path id="path1094-4-2_2_" inkscape:connector-curvature="0" sodipodi:nodetypes="csc" class="st0" d="M398.7,575.5
	c1.8,5.7,7.2,7.4,14.1,7.4c6.4,0,11.9-0.6,15.3-7.6"/>
<path id="path1094-90-5_2_" inkscape:connector-curvature="0" sodipodi:nodetypes="csc" class="st0" d="M369.2,575.7
	c1.8,5.7,7.2,7.4,14.1,7.4c6.4,0,11.9-0.6,15.3-7.6"/>
<path id="path1094-6-1_2_" inkscape:connector-curvature="0" sodipodi:nodetypes="csc" class="st0" d="M339.8,575.8
	c1.8,5.7,7.2,7.4,14.1,7.4c6.4,0,11.9-0.6,15.3-7.6"/>
<path id="path1094-8-2_2_" inkscape:connector-curvature="0" sodipodi:nodetypes="csc" class="st0" d="M310.4,575.9
	c1.8,5.7,7.2,7.4,14.1,7.4c6.4,0,11.9-0.6,15.3-7.6"/>
<path id="path1094-2-8_2_" inkscape:connector-curvature="0" sodipodi:nodetypes="csc" class="st0" d="M281,576
	c1.8,5.7,7.2,7.4,14.1,7.4c6.4,0,11.9-0.6,15.3-7.6"/>
<path id="path1094-1-3_2_" inkscape:connector-curvature="0" sodipodi:nodetypes="csc" class="st0" d="M251.6,576.2
	c1.8,5.7,7.2,7.4,14.1,7.4c6.4,0,11.9-0.6,15.3-7.6"/>
<path id="path1094-24-3_2_" inkscape:connector-curvature="0" sodipodi:nodetypes="csc" class="st0" d="M222.1,576.3
	c1.8,5.7,7.2,7.4,14.1,7.4c6.4,0,11.9-0.6,15.3-7.6"/>
<path id="path1094-87-6_2_" inkscape:connector-curvature="0" sodipodi:nodetypes="csc" class="st0" d="M192.7,576.4
	c1.8,5.7,7.2,7.4,14.1,7.4c6.4,0,11.9-0.6,15.3-7.6"/>
<path id="path1159-9_2_" inkscape:connector-curvature="0" class="st0" d="M192.7,576.4v102.4"/>
<rect x="304.2" y="663.6" class="st5" width="235.7" height="88.3"/>
<text transform="matrix(1 0 0 1 326.9761 678.9579)" class="st5 st2 st3 st4">SANDOMIERZ</text>
<rect x="224.4" y="612.6" class="st5" width="577" height="169"/>
<text transform="matrix(1 0 0 1 224.4409 635.5244)" class="st2 st9">Collegium Gostomianum</text>
<rect x="339.4" y="647.6" class="st5" width="577" height="169"/>
<text transform="matrix(1 0 0 1 339.435 654.0342)" class="st2 st10 st11">SANDOMIERZ 1602</text>
<rect y="781.6" class="st12" width="850.4" height="68.8"/>
<path class="st5" d="M149.9,989.2H28.7c-5.8,0-10.4-4.7-10.4-10.4V820.7c0-5.8,4.7-10.4,10.4-10.4h121.1c5.8,0,10.4,4.7,10.4,10.4
	v158.1C160.3,984.5,155.6,989.2,149.9,989.2z"/>
<text transform="matrix(1 0 0 1.24 24.0059 821.6353)" class="st13 st14 st15">Zbr</text>
<text transform="matrix(1 0 0 1 83.25 821)" class="st13 st16 st17">Collegium Gostomianum logo previews</text>
<rect x="66.5" y="801.3" class="st13" width="1.5" height="30.8"/>
</svg>
