<?xml version="1.0" encoding="utf-8"?>
<!-- Generator: Adobe Illustrator 21.0.0, SVG Export Plug-In . SVG Version: 6.00 Build 0)  -->
<svg version="1.1" id="Warstwa_1" xmlns="http://www.w3.org/2000/svg" xmlns:xlink="http://www.w3.org/1999/xlink" x="0px" y="0px"
	 viewBox="0 0 850.4 850.4" style="enable-background:new 0 0 850.4 850.4;" xml:space="preserve">
<style type="text/css">
	.st0{fill:none;}
	.st1{fill:none;stroke:#020203;stroke-width:3.8817;stroke-linecap:round;stroke-linejoin:round;}
	.st2{font-family:'FamiliarPro-Bold';}
	.st3{font-size:13.7918px;}
	.st4{letter-spacing:2;}
	.st5{font-size:32px;}
	.st6{font-size:15px;}
	.st7{letter-spacing:5;}
	.st8{fill:#3D3D3D;}
	.st9{fill:#FFFFFF;}
	.st10{font-family:'BrushScriptStd';}
	.st11{font-size:19px;}
	.st12{font-family:'Helvetica-Bold';}
	.st13{font-size:13px;}
	.st14{font-size:11px;}
	.st15{letter-spacing:3;}
</style>
<polyline class="st0" points="924.1,141 594.1,202.9 594.1,-12.1 "/>
<path id="path1068-1_2_" inkscape:connector-curvature="0" sodipodi:nodetypes="cccccccccc" class="st1" d="M630.9,218.2V114.5
	l-5.1,0.4c1-7.1-2.1-9.1-6.3-9.9c-13.4-1.4-24.7-11.3-36-21c1.7-6.5-2.2-7.3-6.7-7.5c-4.3-1.3-8.3-5.3-12.3-9.1l-0.4-4.8h-2.4
	c-0.1-2.1,1.9-4.6-1.2-6.1"/>
<path id="path1068-3-5_4_" inkscape:connector-curvature="0" sodipodi:nodetypes="cccccccccc" class="st1" d="M489.9,113.9l5.1,0.4
	c-1-7,2.1-9,6.3-9.8c13.4-1.4,24.7-11.2,36-20.8c-1.7-6.4,2.2-7.3,6.7-7.5c4.3-1.3,8.3-5.2,12.3-9l0.4-4.7h2.4
	c0.1-2.1-1.9-4.5,1.2-6"/>
<path id="path1068-3-5_3_" inkscape:connector-curvature="0" sodipodi:nodetypes="cccccccccc" class="st1" d="M489.9,216.7"/>
<path id="path1094-69_2_" inkscape:connector-curvature="0" sodipodi:nodetypes="csc" class="st1" d="M460.4,114.6
	c1.8,5.7,7.2,7.4,14.1,7.4c6.4,0,11.9-0.6,15.3-7.6"/>
<path id="path1094-9-7_2_" inkscape:connector-curvature="0" sodipodi:nodetypes="csc" class="st1" d="M431,114.7
	c1.8,5.7,7.2,7.4,14.1,7.4c6.4,0,11.9-0.6,15.3-7.6"/>
<path id="path1094-4-2_2_" inkscape:connector-curvature="0" sodipodi:nodetypes="csc" class="st1" d="M401.6,114.8
	c1.8,5.7,7.2,7.4,14.1,7.4c6.4,0,11.9-0.6,15.3-7.6"/>
<path id="path1094-90-5_2_" inkscape:connector-curvature="0" sodipodi:nodetypes="csc" class="st1" d="M372.2,115
	c1.8,5.7,7.2,7.4,14.1,7.4c6.4,0,11.9-0.6,15.3-7.6"/>
<path id="path1094-6-1_2_" inkscape:connector-curvature="0" sodipodi:nodetypes="csc" class="st1" d="M342.8,115.1
	c1.8,5.7,7.2,7.4,14.1,7.4c6.4,0,11.9-0.6,15.3-7.6"/>
<path id="path1094-8-2_2_" inkscape:connector-curvature="0" sodipodi:nodetypes="csc" class="st1" d="M313.3,115.2
	c1.8,5.7,7.2,7.4,14.1,7.4c6.4,0,11.9-0.6,15.3-7.6"/>
<path id="path1094-2-8_2_" inkscape:connector-curvature="0" sodipodi:nodetypes="csc" class="st1" d="M283.9,115.4
	c1.8,5.7,7.2,7.4,14.1,7.4c6.4,0,11.9-0.6,15.3-7.6"/>
<path id="path1094-1-3_2_" inkscape:connector-curvature="0" sodipodi:nodetypes="csc" class="st1" d="M254.5,115.5
	c1.8,5.7,7.2,7.4,14.1,7.4c6.4,0,11.9-0.6,15.3-7.6"/>
<path id="path1094-24-3_2_" inkscape:connector-curvature="0" sodipodi:nodetypes="csc" class="st1" d="M225.1,115.6
	c1.8,5.7,7.2,7.4,14.1,7.4c6.4,0,11.9-0.6,15.3-7.6"/>
<path id="path1094-87-6_2_" inkscape:connector-curvature="0" sodipodi:nodetypes="csc" class="st1" d="M195.7,115.7
	c1.8,5.7,7.2,7.4,14.1,7.4c6.4,0,11.9-0.6,15.3-7.6"/>
<path id="path1159-9_2_" inkscape:connector-curvature="0" class="st1" d="M195.7,115.7v102.4"/>
<rect x="307.1" y="202.9" class="st0" width="235.7" height="88.3"/>
<text transform="matrix(1 0 0 1 329.923 218.276)" class="st0 st2 st3 st4">SANDOMIERZ</text>
<rect x="227.4" y="151.9" class="st0" width="577" height="169"/>
<text transform="matrix(1 0 0 1 227.3878 174.8425)" class="st2 st5">Collegium Gostomianum</text>
<rect x="300.9" y="186.9" class="st0" width="577" height="169"/>
<text transform="matrix(1 0 0 1 300.8932 197.6541)" class="st2 st6 st7">SANDOMIERZ 1602</text>
<rect y="781.6" class="st8" width="850.4" height="68.8"/>
<path class="st0" d="M149.9,989.2H28.7c-5.8,0-10.4-4.7-10.4-10.4V820.7c0-5.8,4.7-10.4,10.4-10.4h121.1c5.8,0,10.4,4.7,10.4,10.4
	v158.1C160.3,984.5,155.6,989.2,149.9,989.2z"/>
<text transform="matrix(1 0 0 1.24 24.0059 821.6353)" class="st9 st10 st11">Zbr</text>
<text transform="matrix(1 0 0 1 83.25 821)" class="st9 st12 st13">Collegium Gostomianum logo previews</text>
<rect x="66.5" y="801.3" class="st9" width="1.5" height="30.8"/>
<rect x="573" y="144.1" class="st0" width="125.3" height="92.3"/>
<text transform="matrix(1 0 0 1 573.0428 151.9529)" class="st2 st14 st15">LO1</text>
<polyline class="st0" points="924.6,348 594.6,409.9 594.6,194.9 "/>
<path id="path1068-1_1_" inkscape:connector-curvature="0" sodipodi:nodetypes="cccccccccc" class="st1" d="M631.4,425.2V321.5
	l-5.1,0.4c1-7.1-2.1-9.1-6.3-9.9c-13.4-1.4-24.7-11.3-36-21c1.7-6.5-2.2-7.3-6.7-7.5c-4.3-1.3-8.3-5.3-12.3-9.1l-0.4-4.8h-2.4
	c-0.1-2.1,1.9-4.6-1.2-6.1"/>
<path id="path1068-3-5_2_" inkscape:connector-curvature="0" sodipodi:nodetypes="cccccccccc" class="st1" d="M490.3,320.9l5.1,0.4
	c-1-7,2.1-9,6.3-9.8c13.4-1.4,24.7-11.2,36-20.8c-1.7-6.4,2.2-7.3,6.7-7.5c4.3-1.3,8.3-5.2,12.3-9l0.4-4.7h2.4
	c0.1-2.1-1.9-4.5,1.2-6"/>
<path id="path1068-3-5_1_" inkscape:connector-curvature="0" sodipodi:nodetypes="cccccccccc" class="st1" d="M490.3,423.7"/>
<path id="path1094-69_1_" inkscape:connector-curvature="0" sodipodi:nodetypes="csc" class="st1" d="M460.9,321.6
	c1.8,5.7,7.2,7.4,14.1,7.4c6.4,0,11.9-0.6,15.3-7.6"/>
<path id="path1094-9-7_1_" inkscape:connector-curvature="0" sodipodi:nodetypes="csc" class="st1" d="M431.5,321.7
	c1.8,5.7,7.2,7.4,14.1,7.4c6.4,0,11.9-0.6,15.3-7.6"/>
<path id="path1094-4-2_1_" inkscape:connector-curvature="0" sodipodi:nodetypes="csc" class="st1" d="M402.1,321.8
	c1.8,5.7,7.2,7.4,14.1,7.4c6.4,0,11.9-0.6,15.3-7.6"/>
<path id="path1094-90-5_1_" inkscape:connector-curvature="0" sodipodi:nodetypes="csc" class="st1" d="M372.7,322
	c1.8,5.7,7.2,7.4,14.1,7.4c6.4,0,11.9-0.6,15.3-7.6"/>
<path id="path1094-6-1_1_" inkscape:connector-curvature="0" sodipodi:nodetypes="csc" class="st1" d="M343.2,322.1
	c1.8,5.7,7.2,7.4,14.1,7.4c6.4,0,11.9-0.6,15.3-7.6"/>
<path id="path1094-8-2_1_" inkscape:connector-curvature="0" sodipodi:nodetypes="csc" class="st1" d="M313.8,322.2
	c1.8,5.7,7.2,7.4,14.1,7.4c6.4,0,11.9-0.6,15.3-7.6"/>
<path id="path1094-2-8_1_" inkscape:connector-curvature="0" sodipodi:nodetypes="csc" class="st1" d="M284.4,322.4
	c1.8,5.7,7.2,7.4,14.1,7.4c6.4,0,11.9-0.6,15.3-7.6"/>
<path id="path1094-1-3_1_" inkscape:connector-curvature="0" sodipodi:nodetypes="csc" class="st1" d="M255,322.5
	c1.8,5.7,7.2,7.4,14.1,7.4c6.4,0,11.9-0.6,15.3-7.6"/>
<path id="path1094-24-3_1_" inkscape:connector-curvature="0" sodipodi:nodetypes="csc" class="st1" d="M225.6,322.6
	c1.8,5.7,7.2,7.4,14.1,7.4c6.4,0,11.9-0.6,15.3-7.6"/>
<path id="path1094-87-6_1_" inkscape:connector-curvature="0" sodipodi:nodetypes="csc" class="st1" d="M196.1,322.7
	c1.8,5.7,7.2,7.4,14.1,7.4c6.4,0,11.9-0.6,15.3-7.6"/>
<path id="path1159-9_1_" inkscape:connector-curvature="0" class="st1" d="M196.1,322.7v102.4"/>
<rect x="307.6" y="409.9" class="st0" width="235.7" height="88.3"/>
<text transform="matrix(1 0 0 1 330.3989 425.276)" class="st0 st2 st3 st4">SANDOMIERZ</text>
<rect x="227.9" y="358.9" class="st0" width="577" height="169"/>
<text transform="matrix(1 0 0 1 227.8638 381.8425)" class="st2 st5">Collegium Gostomianum</text>
<rect x="301.4" y="393.9" class="st0" width="577" height="169"/>
<text transform="matrix(1 0 0 1 301.3691 404.6541)" class="st2 st6 st7">SANDOMIERZ 1602</text>
<rect x="550.4" y="304.9" class="st0" width="125.3" height="92.3"/>
<text transform="matrix(1 0 0 1 550.3578 312.7862)" class="st2 st14">LO1</text>
<polyline class="st0" points="925.1,573.2 595.1,635.1 595.1,420.1 "/>
<path id="path1068-1_3_" inkscape:connector-curvature="0" sodipodi:nodetypes="cccccccccc" class="st1" d="M631.8,650.4V546.7
	l-5.1,0.4c1-7.1-2.1-9.1-6.3-9.9c-13.4-1.4-24.7-11.3-36-21c1.7-6.5-2.2-7.3-6.7-7.5c-4.3-1.3-8.3-5.3-12.3-9.1l-0.4-4.8h-2.4
	c-0.1-2.1,1.9-4.6-1.2-6.1"/>
<path id="path1068-3-5_6_" inkscape:connector-curvature="0" sodipodi:nodetypes="cccccccccc" class="st1" d="M490.8,546.2l5.1,0.4
	c-1-7,2.1-9,6.3-9.8c13.4-1.4,24.7-11.2,36-20.8c-1.7-6.4,2.2-7.3,6.7-7.5c4.3-1.3,8.3-5.2,12.3-9l0.4-4.7h2.4
	c0.1-2.1-1.9-4.5,1.2-6"/>
<path id="path1068-3-5_5_" inkscape:connector-curvature="0" sodipodi:nodetypes="cccccccccc" class="st1" d="M490.8,648.9"/>
<path id="path1094-69_3_" inkscape:connector-curvature="0" sodipodi:nodetypes="csc" class="st1" d="M461.4,546.8
	c1.8,5.7,7.2,7.4,14.1,7.4c6.4,0,11.9-0.6,15.3-7.6"/>
<path id="path1094-9-7_3_" inkscape:connector-curvature="0" sodipodi:nodetypes="csc" class="st1" d="M432,546.9
	c1.8,5.7,7.2,7.4,14.1,7.4c6.4,0,11.9-0.6,15.3-7.6"/>
<path id="path1094-4-2_3_" inkscape:connector-curvature="0" sodipodi:nodetypes="csc" class="st1" d="M402.6,547.1
	c1.8,5.7,7.2,7.4,14.1,7.4c6.4,0,11.9-0.6,15.3-7.6"/>
<path id="path1094-90-5_3_" inkscape:connector-curvature="0" sodipodi:nodetypes="csc" class="st1" d="M373.1,547.2
	c1.8,5.7,7.2,7.4,14.1,7.4c6.4,0,11.9-0.6,15.3-7.6"/>
<path id="path1094-6-1_3_" inkscape:connector-curvature="0" sodipodi:nodetypes="csc" class="st1" d="M343.7,547.3
	c1.8,5.7,7.2,7.4,14.1,7.4c6.4,0,11.9-0.6,15.3-7.6"/>
<path id="path1094-8-2_3_" inkscape:connector-curvature="0" sodipodi:nodetypes="csc" class="st1" d="M314.3,547.5
	c1.8,5.7,7.2,7.4,14.1,7.4c6.4,0,11.9-0.6,15.3-7.6"/>
<path id="path1094-2-8_3_" inkscape:connector-curvature="0" sodipodi:nodetypes="csc" class="st1" d="M284.9,547.6
	c1.8,5.7,7.2,7.4,14.1,7.4c6.4,0,11.9-0.6,15.3-7.6"/>
<path id="path1094-1-3_3_" inkscape:connector-curvature="0" sodipodi:nodetypes="csc" class="st1" d="M255.4,547.7
	c1.8,5.7,7.2,7.4,14.1,7.4c6.4,0,11.9-0.6,15.3-7.6"/>
<path id="path1094-24-3_3_" inkscape:connector-curvature="0" sodipodi:nodetypes="csc" class="st1" d="M226,547.8
	c1.8,5.7,7.2,7.4,14.1,7.4c6.4,0,11.9-0.6,15.3-7.6"/>
<path id="path1094-87-6_3_" inkscape:connector-curvature="0" sodipodi:nodetypes="csc" class="st1" d="M196.6,548
	c1.8,5.7,7.2,7.4,14.1,7.4c6.4,0,11.9-0.6,15.3-7.6"/>
<path id="path1159-9_3_" inkscape:connector-curvature="0" class="st1" d="M196.6,548v102.4"/>
<rect x="308.1" y="635.1" class="st0" width="235.7" height="88.3"/>
<text transform="matrix(1 0 0 1 330.8749 650.4991)" class="st0 st2 st3 st4">SANDOMIERZ</text>
<rect x="228.3" y="584.1" class="st0" width="577" height="169"/>
<text transform="matrix(1 0 0 1 228.3398 607.0657)" class="st2 st5">Collegium Gostomianum</text>
<rect x="301.8" y="619.1" class="st0" width="577" height="169"/>
<text transform="matrix(1 0 0 1 301.8452 629.8773)" class="st2 st6 st7">SANDOMIERZ 1602</text>
<rect x="398.3" y="641.3" class="st0" width="125.3" height="92.3"/>
<text transform="matrix(1 0 0 1 398.2592 649.2204)" class="st2 st14 st15">LO1</text>
</svg>
